<svg xmlns="http://www.w3.org/2000/svg" width="1280" height="360" aria-label="airdeck — e-ink remote panel for AirGradient" role="img" viewBox="0 0 1280 360"><defs><linearGradient id="bg" x1="0" x2="1" y1="0" y2="1"><stop offset="0" stop-color="#0b1220"/><stop offset="1" stop-color="#111c33"/></linearGradient><linearGradient id="paper" x1="0" x2="0" y1="0" y2="1"><stop offset="0" stop-color="#FBFAF5"/><stop offset="1" stop-color="#EDE9DC"/></linearGradient><style>.cap,.tx,.wm{font-family:&apos;Segoe UI&apos;,Roboto,Helvetica,Arial,sans-serif}.wm{font-weight:800}.tx{font-weight:500}.cap{font-weight:700}</style></defs><rect width="1280" height="360" x="0" y="0" fill="url(#bg)" rx="28"/><g transform="translate(72 96)"><path fill="none" stroke="#2b3b57" stroke-linecap="round" stroke-width="15" d="M28 132 A76 76 0 1 1 132 132"/><path fill="none" stroke="#e9edf5" stroke-linecap="round" stroke-width="15" d="M28 132 A76 76 0 0 1 145 33"/><circle cx="145" cy="33" r="12" fill="#10b981" stroke="#052e22" stroke-width="3"/><g fill="none" stroke="#10b981" stroke-linecap="round" stroke-width="8"><path d="M52 70 q16 -12 32 0 t32 0"/><path d="M56 92 q14 -11 28 0 t28 0"/></g></g><text x="240" y="158" fill="#f7f9fc" class="wm" font-size="88">airdeck</text><text x="246" y="204" fill="#9fb3c8" class="tx" font-size="23">The e-ink remote panel for your AirGradient ONE.</text><text x="246" y="252" fill="#10b981" class="cap" font-size="22" letter-spacing="2">AIR · WEATHER · CURRENCY</text><g transform="translate(246 286)"><circle cx="8" cy="0" r="7" fill="#10b981"/><circle cx="34" cy="0" r="7" fill="none" stroke="#3a4a66" stroke-width="2"/><circle cx="60" cy="0" r="7" fill="none" stroke="#3a4a66" stroke-width="2"/></g><g transform="translate(792 66)"><rect width="140" height="228" x="0" y="0" fill="url(#paper)" rx="14"/><path fill="none" stroke="#d3cebf" stroke-linecap="round" stroke-width="10" d="M28 150 A44 44 0 1 1 88 150"/><path fill="none" stroke="#111827" stroke-linecap="round" stroke-width="10" d="M28 150 A44 44 0 0 1 96 62"/><circle cx="96" cy="62" r="8" fill="#fff" stroke="#111827" stroke-width="3"/><text x="58" y="112" fill="#111827" class="wm" font-size="26" text-anchor="middle">480</text><text x="58" y="132" fill="#5b6472" class="tx" font-size="12" text-anchor="middle">CO₂</text><rect width="46" height="36" x="18" y="176" fill="none" stroke="#c9c3b2" stroke-width="2" rx="6"/><rect width="46" height="36" x="76" y="176" fill="none" stroke="#c9c3b2" stroke-width="2" rx="6"/></g><g transform="translate(948 66)"><rect width="140" height="228" x="0" y="0" fill="url(#paper)" rx="14"/><circle cx="42" cy="52" r="16" fill="none" stroke="#111827" stroke-width="3"/><g stroke="#111827" stroke-linecap="round" stroke-width="3"><path d="M42 26v-9M42 87v-9M12 52H3M81 52h-9M22 32l-6-6M68 32l6-6"/></g><text x="86" y="46" fill="#111827" class="wm" font-size="24">30°</text><g stroke="#111827" stroke-linecap="round" stroke-width="3"><path d="M20 128h100M20 156h80M20 184h96"/></g></g><g transform="translate(1104 66)"><rect width="140" height="228" x="0" y="0" fill="url(#paper)" rx="14"/><polyline fill="none" stroke="#111827" stroke-linecap="round" stroke-linejoin="round" stroke-width="3" points="18 96 34 80 50 86 66 60 82 68 98 44 118 52"/><g stroke="#111827" stroke-linecap="round" stroke-width="3"><path d="M20 140h70"/><path d="M110 140h12"/><path d="M20 168h70"/><path d="M104 168h18"/><path d="M20 196h70"/><path d="M100 196h22"/></g></g></svg>